<?xml version="1.0" encoding="UTF-8" standalone="no"?>
<svg xmlns="http://www.w3.org/2000/svg" width="1080" height="330" viewBox="0 0 1080 330" version="1.1">
  <rect x="18" y="24" width="510" height="282" rx="18" ry="18" style="fill:#fafafa;stroke:#000000;stroke-width:1.6" />
  <rect x="552" y="24" width="510" height="282" rx="18" ry="18" style="fill:#fafafa;stroke:#000000;stroke-width:1.6" />

  <text x="273" y="56" text-anchor="middle" style="font-family:Sans;font-size:18px">\footnotesize{ambiguous short horizon}</text>
  <text x="807" y="56" text-anchor="middle" style="font-family:Sans;font-size:18px">\footnotesize{identifiable short horizon}</text>

  <rect x="44" y="90" width="458" height="140" rx="28" ry="28" style="fill:#d1d1d1;stroke:#7f7d76;stroke-width:3" />
  <rect x="578" y="90" width="458" height="140" rx="28" ry="28" style="fill:#d1d1d1;stroke:#7f7d76;stroke-width:3" />
  <line x1="58" y1="160" x2="488" y2="160" style="stroke:#f9f9f9;stroke-width:4;stroke-dasharray:14,12;stroke-linecap:round" />
  <line x1="592" y1="160" x2="1022" y2="160" style="stroke:#f9f9f9;stroke-width:4;stroke-dasharray:14,12;stroke-linecap:round" />

  <path d="M 68 194 C 142 192, 197 184, 252 166 C 304 149, 359 130, 430 116" style="fill:none;stroke:#f4a259;stroke-width:4.8;stroke-linecap:round" />
  <path d="M 68 194 C 145 191, 205 184, 256 167 C 311 149, 367 130, 430 116" style="fill:none;stroke:#329a55;stroke-width:4;stroke-linecap:round;stroke-dasharray:7,6;stroke-opacity:0.88" />
  <path d="M 68 194 C 141 192, 198 188, 252 180 C 312 171, 362 164, 430 160" style="fill:none;stroke:#2f78c4;stroke-width:4;stroke-linecap:round;stroke-dasharray:7,6;stroke-opacity:0.88" />

  <path d="M 602 194 C 667 191, 719 182, 774 164 C 833 144, 886 127, 955 110" style="fill:none;stroke:#f4a259;stroke-width:4.8;stroke-linecap:round" />
  <path d="M 602 194 C 671 189, 729 178, 781 154 C 838 128, 893 116, 955 110" style="fill:none;stroke:#329a55;stroke-width:4;stroke-linecap:round;stroke-dasharray:7,6;stroke-opacity:0.88" />
  <path d="M 602 194 C 664 196, 720 198, 772 193 C 828 188, 892 166, 955 132" style="fill:none;stroke:#2f78c4;stroke-width:4;stroke-linecap:round;stroke-dasharray:7,6;stroke-opacity:0.88" />

  <text x="273" y="78" text-anchor="middle" style="font-family:Sans;font-size:16px">\footnotesize{first-step scores are nearly tied}</text>
  <text x="807" y="78" text-anchor="middle" style="font-family:Sans;font-size:16px">\footnotesize{one candidate diverges quickly}</text>

  <text x="273" y="256" text-anchor="middle" style="font-family:Sans;font-size:16px">\footnotesize{multi-step comparison is needed to separate them}</text>
  <text x="807" y="256" text-anchor="middle" style="font-family:Sans;font-size:16px">\footnotesize{short-horizon motion already reveals the order}</text>

  <rect x="72" y="110" width="76" height="26" rx="7" ry="7" style="fill:#ffffff;stroke:#f4a259;stroke-width:1.1" />
  <rect x="700" y="110" width="76" height="26" rx="7" ry="7" style="fill:#ffffff;stroke:#f4a259;stroke-width:1.1" />
  <text x="110" y="128" text-anchor="middle" style="font-family:Sans;font-size:14px">\tiny{observed}</text>
  <text x="738" y="128" text-anchor="middle" style="font-family:Sans;font-size:14px">\tiny{observed}</text>
</svg>
