<?xml version="1.0" encoding="UTF-8" standalone="no"?>
<svg
   xmlns="http://www.w3.org/2000/svg"
   xmlns:svg="http://www.w3.org/2000/svg"
   xmlns:inkscape="http://www.inkscape.org/namespaces/inkscape"
   width="1080"
   height="380"
   viewBox="0 0 1080 380"
   version="1.1"
   inkscape:version="1.2.2 (b0a8486541, 2022-12-01)">
  <defs>
    <marker id="arrow" markerWidth="12" markerHeight="12" refX="9" refY="6" orient="auto" markerUnits="strokeWidth">
      <path d="M 0 0 L 10 6 L 0 12" style="fill:none;stroke:#000000;stroke-width:1.5;stroke-linecap:round;stroke-linejoin:round" />
    </marker>
  </defs>

  <g id="observation-panel">
    <rect x="18" y="26" width="280" height="155" rx="18" ry="18" style="fill:#fafafa;stroke:#000000;stroke-width:1.6" />
    <text x="158" y="58" text-anchor="middle" style="font-family:Sans;font-size:18px">\footnotesize{observed trajectories}</text>
    <text x="158" y="82" text-anchor="middle" style="font-family:Sans;font-size:16px">\footnotesize{$\hat{\mathbf{z}}_{0:T_{\mathrm{id}}+T-1}$}</text>

    <rect x="44" y="101" width="228" height="54" rx="18" ry="18" style="fill:#d1d1d1;stroke:#7f7d76;stroke-width:2.4" />
    <line x1="58" y1="128" x2="258" y2="128" style="stroke:#f9f9f9;stroke-width:3;stroke-dasharray:12,10;stroke-linecap:round" />
    <path d="M 62 143 C 104 139, 145 134, 184 123 C 209 116, 229 109, 254 105" style="fill:none;stroke:#f4a259;stroke-width:4.4;stroke-linecap:round" />
    <path d="M 62 112 C 111 116, 154 128, 202 143 C 219 148, 238 151, 256 150" style="fill:none;stroke:#329a55;stroke-width:3.8;stroke-linecap:round;stroke-dasharray:7,6;stroke-opacity:0.8" />
    <path d="M 254 105 C 213 99, 169 97, 127 101 C 101 104, 80 107, 62 112" style="fill:none;stroke:#2f78c4;stroke-width:3.8;stroke-linecap:round;stroke-dasharray:7,6;stroke-opacity:0.8" />
    <circle cx="62" cy="143" r="4.2" style="fill:#f4a259;stroke:#d97706;stroke-width:1.0" />
    <circle cx="158" cy="132" r="3.5" style="fill:#f4a259;stroke:#d97706;stroke-width:0.9" />
    <circle cx="254" cy="105" r="4.2" style="fill:#f4a259;stroke:#d97706;stroke-width:1.0" />
  </g>

  <g id="candidate-panel">
    <rect x="18" y="205" width="280" height="121" rx="18" ry="18" style="fill:#fafafa;stroke:#000000;stroke-width:1.6" />
    <text x="158" y="237" text-anchor="middle" style="font-family:Sans;font-size:18px">\footnotesize{candidate profiles}</text>
    <rect x="42" y="262" width="72" height="36" rx="9" ry="9" style="fill:#ffffff;stroke:#000000;stroke-width:1.3" />
    <rect x="122" y="262" width="72" height="36" rx="9" ry="9" style="fill:#ffffff;stroke:#000000;stroke-width:1.3" />
    <rect x="202" y="262" width="72" height="36" rx="9" ry="9" style="fill:#ffffff;stroke:#000000;stroke-width:1.3" />
    <text x="78" y="286" text-anchor="middle" style="font-family:Sans;font-size:17px">\footnotesize{$\boldsymbol{\pi}^{-e}_1$}</text>
    <text x="158" y="286" text-anchor="middle" style="font-family:Sans;font-size:17px">\footnotesize{$\boldsymbol{\pi}^{-e}_2$}</text>
    <text x="238" y="286" text-anchor="middle" style="font-family:Sans;font-size:17px">\footnotesize{$\boldsymbol{\pi}^{-e}_M$}</text>
  </g>

  <g id="solve-panel">
    <rect x="350" y="26" width="300" height="300" rx="20" ry="20" style="fill:#fafafa;stroke:#000000;stroke-width:1.6" />
    <text x="500" y="58" text-anchor="middle" style="font-family:Sans;font-size:18px">\footnotesize{joint prediction solves}</text>

    <rect x="384" y="96" width="232" height="160" rx="16" ry="16" style="fill:#ffffff;stroke:#000000;stroke-width:1.4" />
    <text x="500" y="126" text-anchor="middle" style="font-family:Sans;font-size:17px">\footnotesize{for each $t$ and $\boldsymbol{\pi}^{-e}$}</text>
    <text x="500" y="156" text-anchor="middle" style="font-family:Sans;font-size:17px">\footnotesize{$\hat{\mathbf{x}}_t,\ \pi^e,\ \boldsymbol{\pi}^{-e}$}</text>
    <text x="500" y="190" text-anchor="middle" style="font-family:Sans;font-size:17px">\footnotesize{$\operatorname{Pred}_{\mathrm{ord}}(\cdot)$}</text>
    <text x="500" y="224" text-anchor="middle" style="font-family:Sans;font-size:17px">\footnotesize{$\tilde{\mathbf{z}}(\boldsymbol{\pi}^{-e})$}</text>
  </g>

  <g id="score-panel">
    <rect x="704" y="26" width="358" height="300" rx="20" ry="20" style="fill:#fafafa;stroke:#000000;stroke-width:1.6" />
    <text x="883" y="58" text-anchor="middle" style="font-family:Sans;font-size:18px">\footnotesize{match and rank}</text>

    <rect x="736" y="101" width="198" height="38" rx="10" ry="10" style="fill:#ffffff;stroke:#000000;stroke-width:1.2" />
    <rect x="736" y="151" width="198" height="38" rx="10" ry="10" style="fill:#ffffff;stroke:#000000;stroke-width:1.2" />
    <rect x="736" y="201" width="198" height="38" rx="10" ry="10" style="fill:#ffffff;stroke:#000000;stroke-width:1.2" />
    <text x="835" y="126" text-anchor="middle" style="font-family:Sans;font-size:17px">\footnotesize{$\tilde{\mathbf{z}}^{-e}$ vs. $\hat{\mathbf{z}}^{-e}$}</text>
    <text x="835" y="176" text-anchor="middle" style="font-family:Sans;font-size:17px">\footnotesize{$S(\boldsymbol{\pi}^{-e})$}</text>
    <text x="835" y="226" text-anchor="middle" style="font-family:Sans;font-size:17px">\footnotesize{$p_t(\boldsymbol{\pi}^{-e})$}</text>

    <rect x="966" y="118" width="64" height="16" rx="4" ry="4" style="fill:#d8d8d8;stroke:#7f7d76;stroke-width:0.8" />
    <rect x="966" y="168" width="64" height="16" rx="4" ry="4" style="fill:#d8d8d8;stroke:#7f7d76;stroke-width:0.8" />
    <rect x="966" y="218" width="64" height="16" rx="4" ry="4" style="fill:#d8d8d8;stroke:#7f7d76;stroke-width:0.8" />
    <rect x="966" y="118" width="18" height="16" rx="4" ry="4" style="fill:#f4a259;stroke:none" />
    <rect x="966" y="168" width="31" height="16" rx="4" ry="4" style="fill:#329a55;stroke:none" />
    <rect x="966" y="218" width="44" height="16" rx="4" ry="4" style="fill:#2f78c4;stroke:none" />

    <rect x="805" y="264" width="156" height="40" rx="10" ry="10" style="fill:#ffffff;stroke:#000000;stroke-width:1.3" />
    <text x="883" y="290" text-anchor="middle" style="font-family:Sans;font-size:18px">\footnotesize{$\hat{\boldsymbol{\pi}}^{-e}$}</text>
  </g>

  <path d="M 298 108 L 348 135" style="fill:none;stroke:#000000;stroke-width:2;stroke-linecap:round;marker-end:url(#arrow)" />
  <path d="M 298 266 L 348 205" style="fill:none;stroke:#000000;stroke-width:2;stroke-linecap:round;marker-end:url(#arrow)" />
  <path d="M 650 176 L 702 176" style="fill:none;stroke:#000000;stroke-width:2;stroke-linecap:round;marker-end:url(#arrow)" />
  <path d="M 883 239 L 883 261" style="fill:none;stroke:#000000;stroke-width:2;stroke-linecap:round;marker-end:url(#arrow)" />
</svg>
