<?xml version="1.0" encoding="UTF-8" standalone="no"?>
<svg xmlns="http://www.w3.org/2000/svg" width="1120" height="292" viewBox="0 0 1120 292" version="1.1">
  <defs>
    <marker id="arrow" markerWidth="7.2" markerHeight="7.2" refX="5.8" refY="3.6" orient="auto" markerUnits="strokeWidth">
      <path d="M 0 0 L 5.8 3.6 L 0 7.2" style="fill:none;stroke:#000000;stroke-width:1.05;stroke-linecap:round;stroke-linejoin:round" />
    </marker>
  </defs>

  <rect x="18" y="24" width="200" height="182" rx="16" ry="16" style="fill:#fafafa;stroke:#000000;stroke-width:1.4" />
  <rect x="238" y="24" width="200" height="182" rx="16" ry="16" style="fill:#fafafa;stroke:#000000;stroke-width:1.4" />
  <rect x="458" y="24" width="200" height="182" rx="16" ry="16" style="fill:#fafafa;stroke:#000000;stroke-width:1.4" />
  <rect x="678" y="24" width="200" height="182" rx="16" ry="16" style="fill:#fafafa;stroke:#000000;stroke-width:1.4" />
  <rect x="898" y="24" width="204" height="182" rx="16" ry="16" style="fill:#fafafa;stroke:#000000;stroke-width:1.4" />

  <rect x="42" y="60" width="152" height="64" rx="14" ry="14" style="fill:#d1d1d1;stroke:#7f7d76;stroke-width:2.0" />
  <line x1="54" y1="92" x2="182" y2="92" style="stroke:#f9f9f9;stroke-width:3.6;stroke-dasharray:12,10;stroke-linecap:round" />
  <path d="M 56 116 C 79 112, 101 105, 126 95 C 147 87, 162 79, 184 65" style="fill:none;stroke:#f4a259;stroke-width:3.6;stroke-linecap:round" />
  <text x="118" y="168" text-anchor="middle" style="font-family:Sans;font-size:15px">\footnotesize{$\mathcal{W}_m$}</text>

  <rect x="262" y="56" width="152" height="72" rx="14" ry="14" style="fill:#ffffff;stroke:#000000;stroke-width:1.1" />
  <rect x="280" y="72" width="116" height="12" rx="5" ry="5" style="fill:#d8d8d8;stroke:#7f7d76;stroke-width:0.8" />
  <rect x="280" y="90" width="116" height="12" rx="5" ry="5" style="fill:#d8d8d8;stroke:#7f7d76;stroke-width:0.8" />
  <rect x="280" y="108" width="116" height="12" rx="5" ry="5" style="fill:#d8d8d8;stroke:#7f7d76;stroke-width:0.8" />
  <rect x="280" y="72" width="24" height="12" rx="5" ry="5" style="fill:#f4a259;stroke:none" />
  <rect x="280" y="90" width="46" height="12" rx="5" ry="5" style="fill:#329a55;stroke:none" />
  <rect x="280" y="108" width="66" height="12" rx="5" ry="5" style="fill:#2f78c4;stroke:none" />
  <text x="338" y="168" text-anchor="middle" style="font-family:Sans;font-size:15px">\footnotesize{$R_m(\mathbf{c}^{-e})$}</text>

  <rect x="482" y="56" width="152" height="72" rx="14" ry="14" style="fill:#ffffff;stroke:#000000;stroke-width:1.1" />
  <path d="M 508 90 C 528 76, 548 76, 568 90" style="fill:none;stroke:#329a55;stroke-width:3.4;stroke-linecap:round;stroke-dasharray:6,5" />
  <path d="M 508 102 C 528 88, 548 88, 568 102" style="fill:none;stroke:#f4a259;stroke-width:3.4;stroke-linecap:round" />
  <path d="M 508 114 C 528 100, 548 100, 568 114" style="fill:none;stroke:#2f78c4;stroke-width:3.4;stroke-linecap:round;stroke-dasharray:6,5" />
  <text x="558" y="168" text-anchor="middle" style="font-family:Sans;font-size:15px">\footnotesize{$\bar{R}_m(\mathbf{c}^{-e})$}</text>

  <rect x="702" y="56" width="152" height="72" rx="14" ry="14" style="fill:#ffffff;stroke:#000000;stroke-width:1.1" />
  <rect x="724" y="72" width="108" height="14" rx="5" ry="5" style="fill:#f4a259;stroke:#d97706;stroke-width:0.8" />
  <rect x="724" y="94" width="108" height="14" rx="5" ry="5" style="fill:#d8d8d8;stroke:#7f7d76;stroke-width:0.8" />
  <path d="M 816 119 L 823 126 L 838 111" style="fill:none;stroke:#329a55;stroke-width:3;stroke-linecap:round;stroke-linejoin:round" />
  <text x="778" y="168" text-anchor="middle" style="font-family:Sans;font-size:12px">\footnotesize{$c_{\mathrm{cur}} \gets c_{\mathrm{best}}$}</text>

  <rect x="922" y="56" width="156" height="72" rx="14" ry="14" style="fill:#ffffff;stroke:#000000;stroke-width:1.1" />
  <rect x="950" y="70" width="100" height="22" rx="6" ry="6" style="fill:none;stroke:#7f7d76;stroke-width:1.0" />
  <rect x="950" y="100" width="60" height="12" rx="4" ry="4" style="fill:#f4a259;stroke:none" />
  <path d="M 1018 106 L 1038 106" style="fill:none;stroke:#000000;stroke-width:1.4;stroke-linecap:round;marker-end:url(#arrow)" />
  <text x="1000" y="158" text-anchor="middle" style="font-family:Sans;font-size:14px">\footnotesize{$\tilde{\mathbf{z}}^{-e}$}</text>
  <text x="1000" y="176" text-anchor="middle" style="font-family:Sans;font-size:14px">\footnotesize{$u_t^e$}</text>

  <path d="M 218 92 L 236 92" style="fill:none;stroke:#000000;stroke-width:1.7;stroke-linecap:round;marker-end:url(#arrow)" />
  <path d="M 438 92 L 456 92" style="fill:none;stroke:#000000;stroke-width:1.7;stroke-linecap:round;marker-end:url(#arrow)" />
  <path d="M 658 92 L 676 92" style="fill:none;stroke:#000000;stroke-width:1.7;stroke-linecap:round;marker-end:url(#arrow)" />
  <path d="M 878 92 L 896 92" style="fill:none;stroke:#000000;stroke-width:1.7;stroke-linecap:round;marker-end:url(#arrow)" />

  <path d="M 1000 224 C 794 264, 324 264, 118 224" style="fill:none;stroke:#000000;stroke-width:1.7;stroke-linecap:round;marker-end:url(#arrow)" />
  <text x="558" y="268" text-anchor="middle" style="font-family:Sans;font-size:15px">\footnotesize{$\mathcal{W}_m \rightarrow \mathcal{W}_{m+1}$}</text>
</svg>
