<?xml version="1.0" encoding="UTF-8" standalone="no"?>
<svg xmlns="http://www.w3.org/2000/svg" width="1120" height="292" viewBox="0 0 1120 292" version="1.1">
  <defs>
    <marker id="arrow" markerWidth="7.2" markerHeight="7.2" refX="5.8" refY="3.6" orient="auto" markerUnits="strokeWidth">
      <path d="M 0 0 L 5.8 3.6 L 0 7.2" style="fill:none;stroke:#000000;stroke-width:1.05;stroke-linecap:round;stroke-linejoin:round" />
    </marker>
  </defs>

  <rect x="18" y="24" width="200" height="182" rx="16" ry="16" style="fill:#fafafa;stroke:#000000;stroke-width:1.4" />
  <rect x="238" y="24" width="200" height="182" rx="16" ry="16" style="fill:#fafafa;stroke:#000000;stroke-width:1.4" />
  <rect x="458" y="24" width="200" height="182" rx="16" ry="16" style="fill:#fafafa;stroke:#000000;stroke-width:1.4" />
  <rect x="678" y="24" width="200" height="182" rx="16" ry="16" style="fill:#fafafa;stroke:#000000;stroke-width:1.4" />
  <rect x="898" y="24" width="204" height="182" rx="16" ry="16" style="fill:#fafafa;stroke:#000000;stroke-width:1.4" />

  <text x="118" y="46" text-anchor="middle" style="font-family:Sans;font-size:14px">\footnotesize{Observed window}</text>
  <text x="338" y="46" text-anchor="middle" style="font-family:Sans;font-size:14px">\footnotesize{Raw score}</text>
  <text x="558" y="46" text-anchor="middle" style="font-family:Sans;font-size:14px">\footnotesize{Smoothed score}</text>
  <text x="778" y="46" text-anchor="middle" style="font-family:Sans;font-size:14px">\footnotesize{Profile update}</text>
  <text x="1000" y="46" text-anchor="middle" style="font-family:Sans;font-size:14px">\footnotesize{Ego replan}</text>

  <rect x="42" y="68" width="152" height="64" rx="14" ry="14" style="fill:#d1d1d1;stroke:#7f7d76;stroke-width:2.0" />
  <line x1="54" y1="100" x2="182" y2="100" style="stroke:#f9f9f9;stroke-width:3.6;stroke-dasharray:12,10;stroke-linecap:round" />
  <path d="M 56 124 C 79 120, 101 113, 126 103 C 147 95, 162 87, 184 73" style="fill:none;stroke:#f4a259;stroke-width:3.6;stroke-linecap:round" />
  <text x="118" y="176" text-anchor="middle" style="font-family:Sans;font-size:15px">\footnotesize{$\mathcal{W}_m$}</text>

  <rect x="262" y="64" width="152" height="72" rx="14" ry="14" style="fill:#ffffff;stroke:#000000;stroke-width:1.1" />
  <rect x="280" y="80" width="116" height="12" rx="5" ry="5" style="fill:#d8d8d8;stroke:#7f7d76;stroke-width:0.8" />
  <rect x="280" y="98" width="116" height="12" rx="5" ry="5" style="fill:#d8d8d8;stroke:#7f7d76;stroke-width:0.8" />
  <rect x="280" y="116" width="116" height="12" rx="5" ry="5" style="fill:#d8d8d8;stroke:#7f7d76;stroke-width:0.8" />
  <rect x="280" y="80" width="24" height="12" rx="5" ry="5" style="fill:#f4a259;stroke:none" />
  <rect x="280" y="98" width="46" height="12" rx="5" ry="5" style="fill:#329a55;stroke:none" />
  <rect x="280" y="116" width="66" height="12" rx="5" ry="5" style="fill:#2f78c4;stroke:none" />
  <text x="338" y="176" text-anchor="middle" style="font-family:Sans;font-size:15px">\footnotesize{$R_m(\boldsymbol{r}^{-e})$}</text>

  <rect x="482" y="64" width="152" height="72" rx="14" ry="14" style="fill:#ffffff;stroke:#000000;stroke-width:1.1" />
  <path d="M 508 98 C 528 84, 548 84, 568 98" style="fill:none;stroke:#329a55;stroke-width:3.4;stroke-linecap:round;stroke-dasharray:6,5" />
  <path d="M 508 110 C 528 96, 548 96, 568 110" style="fill:none;stroke:#f4a259;stroke-width:3.4;stroke-linecap:round" />
  <path d="M 508 122 C 528 108, 548 108, 568 122" style="fill:none;stroke:#2f78c4;stroke-width:3.4;stroke-linecap:round;stroke-dasharray:6,5" />
  <text x="558" y="176" text-anchor="middle" style="font-family:Sans;font-size:15px">\footnotesize{$\bar{R}_m(\boldsymbol{r}^{-e})$}</text>

  <rect x="702" y="64" width="152" height="72" rx="14" ry="14" style="fill:#ffffff;stroke:#000000;stroke-width:1.1" />
  <rect x="724" y="80" width="108" height="14" rx="5" ry="5" style="fill:#f4a259;stroke:#d97706;stroke-width:0.8" />
  <rect x="724" y="102" width="108" height="14" rx="5" ry="5" style="fill:#d8d8d8;stroke:#7f7d76;stroke-width:0.8" />
  <path d="M 816 127 L 823 134 L 838 119" style="fill:none;stroke:#329a55;stroke-width:3;stroke-linecap:round;stroke-linejoin:round" />
  <text x="778" y="176" text-anchor="middle" style="font-family:Sans;font-size:12px">\footnotesize{$\boldsymbol{r}_{\mathrm{cur}}^{-e} \gets \boldsymbol{r}_{\mathrm{best}}^{-e}$}</text>

  <rect x="922" y="64" width="156" height="72" rx="14" ry="14" style="fill:#ffffff;stroke:#000000;stroke-width:1.1" />
  <rect x="950" y="78" width="100" height="22" rx="6" ry="6" style="fill:none;stroke:#7f7d76;stroke-width:1.0" />
  <rect x="950" y="108" width="60" height="12" rx="4" ry="4" style="fill:#f4a259;stroke:none" />
  <path d="M 1018 114 L 1038 114" style="fill:none;stroke:#000000;stroke-width:1.4;stroke-linecap:round;marker-end:url(#arrow)" />
  <text x="1000" y="176" text-anchor="middle" style="font-family:Sans;font-size:14px">\footnotesize{$\tilde{\mathbf{z}}^{-e} \quad u_t^e$}</text>

  <path d="M 218 100 L 236 100" style="fill:none;stroke:#000000;stroke-width:1.7;stroke-linecap:round;marker-end:url(#arrow)" />
  <path d="M 438 100 L 456 100" style="fill:none;stroke:#000000;stroke-width:1.7;stroke-linecap:round;marker-end:url(#arrow)" />
  <path d="M 658 100 L 676 100" style="fill:none;stroke:#000000;stroke-width:1.7;stroke-linecap:round;marker-end:url(#arrow)" />
  <path d="M 878 100 L 896 100" style="fill:none;stroke:#000000;stroke-width:1.7;stroke-linecap:round;marker-end:url(#arrow)" />

  <path d="M 1000 224 C 794 264, 324 264, 118 224" style="fill:none;stroke:#000000;stroke-width:1.7;stroke-linecap:round;marker-end:url(#arrow)" />
  <text x="558" y="278" text-anchor="middle" style="font-family:Sans;font-size:15px">\footnotesize{$\mathcal{W}_m \rightarrow \mathcal{W}_{m+1}$}</text>
</svg>
