<?xml version="1.0" encoding="UTF-8" standalone="no"?>
<svg xmlns="http://www.w3.org/2000/svg" width="920" height="330" viewBox="0 0 920 330" version="1.1">
  <text x="460" y="26" text-anchor="middle" style="font-family:Sans;font-size:18px">\footnotesize{posterior concentration over time}</text>

  <rect x="22" y="46" width="876" height="252" rx="18" ry="18" style="fill:#fafafa;stroke:#000000;stroke-width:1.6" />

  <text x="140" y="84" text-anchor="middle" style="font-family:Sans;font-size:16px">\footnotesize{candidate}</text>
  <text x="320" y="84" text-anchor="middle" style="font-family:Sans;font-size:16px">\footnotesize{m = 0}</text>
  <text x="500" y="84" text-anchor="middle" style="font-family:Sans;font-size:16px">\footnotesize{m = 1}</text>
  <text x="680" y="84" text-anchor="middle" style="font-family:Sans;font-size:16px">\footnotesize{m = 2}</text>
  <text x="860" y="84" text-anchor="middle" style="font-family:Sans;font-size:16px">\footnotesize{m = 3}</text>

  <text x="140" y="132" text-anchor="middle" style="font-family:Sans;font-size:16px">\footnotesize{$\pi^i_1$}</text>
  <text x="140" y="188" text-anchor="middle" style="font-family:Sans;font-size:16px">\footnotesize{$\pi^i_2$}</text>
  <text x="140" y="244" text-anchor="middle" style="font-family:Sans;font-size:16px">\footnotesize{$\pi^i_3$}</text>

  <rect x="220" y="112" width="76" height="34" rx="8" ry="8" style="fill:#cfd8dc;stroke:#7f7d76;stroke-width:1" />
  <rect x="220" y="168" width="76" height="34" rx="8" ry="8" style="fill:#cfd8dc;stroke:#7f7d76;stroke-width:1" />
  <rect x="220" y="224" width="76" height="34" rx="8" ry="8" style="fill:#cfd8dc;stroke:#7f7d76;stroke-width:1" />

  <rect x="400" y="112" width="110" height="34" rx="8" ry="8" style="fill:#dbe7ea;stroke:#7f7d76;stroke-width:1" />
  <rect x="400" y="168" width="92" height="34" rx="8" ry="8" style="fill:#dbe7ea;stroke:#7f7d76;stroke-width:1" />
  <rect x="400" y="224" width="82" height="34" rx="8" ry="8" style="fill:#dbe7ea;stroke:#7f7d76;stroke-width:1" />

  <rect x="580" y="112" width="138" height="34" rx="8" ry="8" style="fill:#e2f1e4;stroke:#7f7d76;stroke-width:1" />
  <rect x="580" y="168" width="72" height="34" rx="8" ry="8" style="fill:#e2f1e4;stroke:#7f7d76;stroke-width:1" />
  <rect x="580" y="224" width="52" height="34" rx="8" ry="8" style="fill:#e2f1e4;stroke:#7f7d76;stroke-width:1" />

  <rect x="760" y="112" width="160" height="34" rx="8" ry="8" style="fill:#e8f5e9;stroke:#2f7d32;stroke-width:1.2" />
  <rect x="760" y="168" width="60" height="34" rx="8" ry="8" style="fill:#f0f4f8;stroke:#7f7d76;stroke-width:1" />
  <rect x="760" y="224" width="44" height="34" rx="8" ry="8" style="fill:#f0f4f8;stroke:#7f7d76;stroke-width:1" />

  <text x="258" y="134" text-anchor="middle" style="font-family:Sans;font-size:15px">\footnotesize{0.33}</text>
  <text x="258" y="190" text-anchor="middle" style="font-family:Sans;font-size:15px">\footnotesize{0.33}</text>
  <text x="258" y="246" text-anchor="middle" style="font-family:Sans;font-size:15px">\footnotesize{0.33}</text>

  <text x="455" y="134" text-anchor="middle" style="font-family:Sans;font-size:15px">\footnotesize{0.45}</text>
  <text x="446" y="190" text-anchor="middle" style="font-family:Sans;font-size:15px">\footnotesize{0.30}</text>
  <text x="441" y="246" text-anchor="middle" style="font-family:Sans;font-size:15px">\footnotesize{0.25}</text>

  <text x="649" y="134" text-anchor="middle" style="font-family:Sans;font-size:15px">\footnotesize{0.60}</text>
  <text x="616" y="190" text-anchor="middle" style="font-family:Sans;font-size:15px">\footnotesize{0.25}</text>
  <text x="606" y="246" text-anchor="middle" style="font-family:Sans;font-size:15px">\footnotesize{0.15}</text>

  <text x="840" y="134" text-anchor="middle" style="font-family:Sans;font-size:15px">\footnotesize{0.78}</text>
  <text x="790" y="190" text-anchor="middle" style="font-family:Sans;font-size:15px">\footnotesize{0.15}</text>
  <text x="782" y="246" text-anchor="middle" style="font-family:Sans;font-size:15px">\footnotesize{0.07}</text>

  <text x="460" y="290" text-anchor="middle" style="font-family:Sans;font-size:16px">\footnotesize{posterior mass concentrates as more windows are observed}</text>
</svg>
