<?xml version="1.0" encoding="UTF-8" standalone="no"?>
<svg xmlns="http://www.w3.org/2000/svg" width="1120" height="300" viewBox="0 0 1120 300" version="1.1">
  <defs>
    <marker id="arrow" markerWidth="12" markerHeight="12" refX="9" refY="6" orient="auto" markerUnits="strokeWidth">
      <path d="M 0 0 L 10 6 L 0 12" style="fill:none;stroke:#000000;stroke-width:1.5;stroke-linecap:round;stroke-linejoin:round" />
    </marker>
  </defs>

  <text x="560" y="26" text-anchor="middle" style="font-family:Sans;font-size:18px">\footnotesize{ranking ingredients}</text>

  <rect x="18" y="40" width="236" height="232" rx="18" ry="18" style="fill:#fafafa;stroke:#000000;stroke-width:1.6" />
  <rect x="282" y="40" width="236" height="232" rx="18" ry="18" style="fill:#fafafa;stroke:#000000;stroke-width:1.6" />
  <rect x="546" y="40" width="236" height="232" rx="18" ry="18" style="fill:#fafafa;stroke:#000000;stroke-width:1.6" />
  <rect x="810" y="40" width="292" height="232" rx="18" ry="18" style="fill:#fafafa;stroke:#000000;stroke-width:1.6" />

  <text x="136" y="72" text-anchor="middle" style="font-family:Sans;font-size:18px">\footnotesize{immediate fit}</text>
  <text x="400" y="72" text-anchor="middle" style="font-family:Sans;font-size:18px">\footnotesize{trajectory fit}</text>
  <text x="664" y="72" text-anchor="middle" style="font-family:Sans;font-size:18px">\footnotesize{posterior trace}</text>
  <text x="956" y="72" text-anchor="middle" style="font-family:Sans;font-size:18px">\footnotesize{combined ranking}</text>

  <rect x="44" y="102" width="184" height="94" rx="20" ry="20" style="fill:#d1d1d1;stroke:#7f7d76;stroke-width:2.6" />
  <line x1="60" y1="149" x2="212" y2="149" style="stroke:#f9f9f9;stroke-width:4;stroke-dasharray:14,12;stroke-linecap:round" />
  <path d="M 64 180 C 99 175, 135 164, 170 145 C 184 137, 197 129, 210 118" style="fill:none;stroke:#f4a259;stroke-width:4.4;stroke-linecap:round" />
  <text x="136" y="227" text-anchor="middle" style="font-family:Sans;font-size:16px">\footnotesize{$S_u(\pi^i)$}</text>

  <rect x="308" y="102" width="184" height="94" rx="20" ry="20" style="fill:#d1d1d1;stroke:#7f7d76;stroke-width:2.6" />
  <line x1="324" y1="149" x2="476" y2="149" style="stroke:#f9f9f9;stroke-width:4;stroke-dasharray:14,12;stroke-linecap:round" />
  <path d="M 330 180 C 364 177, 396 167, 430 146 C 445 137, 457 129, 472 117" style="fill:none;stroke:#f4a259;stroke-width:4.2;stroke-linecap:round" />
  <path d="M 331 178 C 365 175, 398 164, 431 145 C 445 137, 458 129, 472 117" style="fill:none;stroke:#329a55;stroke-width:3.8;stroke-linecap:round;stroke-dasharray:7,6;stroke-opacity:0.85" />
  <text x="400" y="227" text-anchor="middle" style="font-family:Sans;font-size:16px">\footnotesize{$S_{\mathrm{traj}}(\pi^i)$}</text>

  <rect x="560" y="98" width="184" height="102" rx="20" ry="20" style="fill:#ffffff;stroke:#000000;stroke-width:1.2" />
  <rect x="588" y="116" width="128" height="18" rx="5" ry="5" style="fill:#d8d8d8;stroke:#7f7d76;stroke-width:0.8" />
  <rect x="588" y="142" width="128" height="18" rx="5" ry="5" style="fill:#d8d8d8;stroke:#7f7d76;stroke-width:0.8" />
  <rect x="588" y="168" width="128" height="18" rx="5" ry="5" style="fill:#d8d8d8;stroke:#7f7d76;stroke-width:0.8" />
  <rect x="588" y="116" width="32" height="18" rx="5" ry="5" style="fill:#f4a259;stroke:none" />
  <rect x="588" y="142" width="58" height="18" rx="5" ry="5" style="fill:#329a55;stroke:none" />
  <rect x="588" y="168" width="82" height="18" rx="5" ry="5" style="fill:#2f78c4;stroke:none" />
  <text x="652" y="226" text-anchor="middle" style="font-family:Sans;font-size:16px">\footnotesize{$p_t(\pi^i)$}</text>

  <rect x="838" y="100" width="228" height="92" rx="16" ry="16" style="fill:#ffffff;stroke:#000000;stroke-width:1.2" />
  <text x="952" y="132" text-anchor="middle" style="font-family:Sans;font-size:17px">\footnotesize{normalize and fuse}</text>
  <text x="952" y="157" text-anchor="middle" style="font-family:Sans;font-size:17px">\footnotesize{$S_u$, $S_{\mathrm{traj}}$, and confidence}</text>
  <rect x="884" y="206" width="136" height="38" rx="10" ry="10" style="fill:#e8f5e9;stroke:#2f7d32;stroke-width:1.2" />
  <text x="952" y="231" text-anchor="middle" style="font-family:Sans;font-size:18px">\footnotesize{$\hat{\pi}^i$}</text>

  <path d="M 254 149 L 278 149" style="fill:none;stroke:#000000;stroke-width:2;stroke-linecap:round;marker-end:url(#arrow)" />
  <path d="M 518 149 L 542 149" style="fill:none;stroke:#000000;stroke-width:2;stroke-linecap:round;marker-end:url(#arrow)" />
  <path d="M 782 149 L 806 149" style="fill:none;stroke:#000000;stroke-width:2;stroke-linecap:round;marker-end:url(#arrow)" />
  <path d="M 952 192 L 952 204" style="fill:none;stroke:#000000;stroke-width:2;stroke-linecap:round;marker-end:url(#arrow)" />
</svg>
