<?xml version="1.0" encoding="UTF-8" standalone="no"?>
<svg
   xmlns="http://www.w3.org/2000/svg"
   xmlns:svg="http://www.w3.org/2000/svg"
   xmlns:inkscape="http://www.inkscape.org/namespaces/inkscape"
   width="990"
   height="330"
   viewBox="0 0 990 330"
   version="1.1"
   inkscape:version="1.2.2 (b0a8486541, 2022-12-01)">
  <g id="panel-observed">
    <rect x="18" y="24" width="302" height="278" rx="18" ry="18" style="fill:#fafafa;stroke:#000000;stroke-width:1.6" />
    <text x="169" y="54" text-anchor="middle" style="font-family:Sans;font-size:18px">\footnotesize{observed slice}</text>
    <text x="169" y="79" text-anchor="middle" style="font-family:Sans;font-size:16px">\footnotesize{$\hat{\mathbf{z}}^i_{t:t+H_p}$}</text>
    <rect x="42" y="105" width="254" height="122" rx="28" ry="28" style="fill:#d1d1d1;stroke:#7f7d76;stroke-width:3" />
    <line x1="62" y1="166" x2="278" y2="166" style="stroke:#f9f9f9;stroke-width:4;stroke-dasharray:14,12;stroke-linecap:round" />
    <path d="M 70 197 C 113 194, 157 184, 196 162 C 224 146, 244 132, 268 118" style="fill:none;stroke:#f4a259;stroke-width:5.2;stroke-linecap:round" />
    <circle cx="70" cy="197" r="4.6" style="fill:#f4a259;stroke:#d97706;stroke-width:1.2" />
    <circle cx="121" cy="191" r="3.8" style="fill:#f4a259;stroke:#d97706;stroke-width:1" />
    <circle cx="171" cy="177" r="3.8" style="fill:#f4a259;stroke:#d97706;stroke-width:1" />
    <circle cx="219" cy="149" r="3.8" style="fill:#f4a259;stroke:#d97706;stroke-width:1" />
    <circle cx="268" cy="118" r="4.6" style="fill:#f4a259;stroke:#d97706;stroke-width:1.2" />
    <text x="169" y="265" text-anchor="middle" style="font-family:Sans;font-size:16px">\footnotesize{state and control measurements}</text>
  </g>

  <g id="panel-good">
    <rect x="344" y="24" width="302" height="278" rx="18" ry="18" style="fill:#fafafa;stroke:#000000;stroke-width:1.6" />
    <text x="495" y="54" text-anchor="middle" style="font-family:Sans;font-size:18px">\footnotesize{candidate $\pi^i_{\mathrm{a}}$}</text>
    <text x="495" y="79" text-anchor="middle" style="font-family:Sans;font-size:16px">\footnotesize{matching trajectory prediction}</text>
    <rect x="368" y="105" width="254" height="122" rx="28" ry="28" style="fill:#d1d1d1;stroke:#7f7d76;stroke-width:3" />
    <line x1="388" y1="166" x2="604" y2="166" style="stroke:#f9f9f9;stroke-width:4;stroke-dasharray:14,12;stroke-linecap:round" />
    <path d="M 396 197 C 439 194, 483 184, 522 162 C 550 146, 570 132, 594 118" style="fill:none;stroke:#f4a259;stroke-width:4.8;stroke-linecap:round;opacity:0.85" />
    <path d="M 396 196 C 440 192, 482 181, 523 160 C 551 145, 571 131, 595 119" style="fill:none;stroke:#329a55;stroke-width:4.2;stroke-linecap:round;stroke-dasharray:7,6;stroke-opacity:0.85" />
    <text x="495" y="258" text-anchor="middle" style="font-family:Sans;font-size:18px">\footnotesize{low $L_t(\pi^i_{\mathrm{a}})$}</text>
  </g>

  <g id="panel-bad">
    <rect x="670" y="24" width="302" height="278" rx="18" ry="18" style="fill:#fafafa;stroke:#000000;stroke-width:1.6" />
    <text x="821" y="54" text-anchor="middle" style="font-family:Sans;font-size:18px">\footnotesize{candidate $\pi^i_{\mathrm{b}}$}</text>
    <text x="821" y="79" text-anchor="middle" style="font-family:Sans;font-size:16px">\footnotesize{mismatching trajectory prediction}</text>
    <rect x="694" y="105" width="254" height="122" rx="28" ry="28" style="fill:#d1d1d1;stroke:#7f7d76;stroke-width:3" />
    <line x1="714" y1="166" x2="930" y2="166" style="stroke:#f9f9f9;stroke-width:4;stroke-dasharray:14,12;stroke-linecap:round" />
    <path d="M 722 197 C 765 194, 809 184, 848 162 C 876 146, 896 132, 920 118" style="fill:none;stroke:#f4a259;stroke-width:4.8;stroke-linecap:round;opacity:0.85" />
    <path d="M 722 196 C 763 204, 807 212, 848 210 C 879 208, 901 188, 920 142" style="fill:none;stroke:#2f78c4;stroke-width:4.2;stroke-linecap:round;stroke-dasharray:7,6;stroke-opacity:0.85" />
    <text x="821" y="258" text-anchor="middle" style="font-family:Sans;font-size:18px">\footnotesize{high $L_t(\pi^i_{\mathrm{b}})$}</text>
  </g>

  <text x="495" y="317" text-anchor="middle" style="font-family:Sans;font-size:16px">\footnotesize{The multi-step loss compares observed and predicted controls and positions over a short horizon.}</text>
</svg>
