<?xml version="1.0" encoding="UTF-8" standalone="no"?>
<svg xmlns="http://www.w3.org/2000/svg"
     xmlns:xlink="http://www.w3.org/1999/xlink"
     width="1600" height="960" viewBox="0 0 1600 960">
  <defs>
    <marker id="arrow-blue" markerWidth="10" markerHeight="10" refX="8.5" refY="5" orient="auto" markerUnits="userSpaceOnUse">
      <path d="M 0 0 L 10 5 L 0 10 z" fill="#7290e7"/>
    </marker>
    <marker id="arrow-green" markerWidth="10" markerHeight="10" refX="8.5" refY="5" orient="auto" markerUnits="userSpaceOnUse">
      <path d="M 0 0 L 10 5 L 0 10 z" fill="#58b59a"/>
    </marker>
    <marker id="arrow-red" markerWidth="10" markerHeight="10" refX="8.5" refY="5" orient="auto" markerUnits="userSpaceOnUse">
      <path d="M 0 0 L 10 5 L 0 10 z" fill="#e6a29a"/>
    </marker>
    <style>
      .title {
        fill: #0f172a;
        font-size: 32px;
        font-family: DejaVu Sans, Liberation Sans, sans-serif;
        font-weight: 700;
      }
      .section {
        fill: #334155;
        font-size: 21px;
        font-family: DejaVu Sans, Liberation Sans, sans-serif;
        font-weight: 700;
      }
      .word {
        fill: #334155;
        font-size: 19px;
        font-family: DejaVu Sans, Liberation Sans, sans-serif;
        font-weight: 600;
      }
      .math {
        fill: #0f172a;
        font-size: 21px;
        font-family: DejaVu Sans, Liberation Sans, sans-serif;
      }
      .tag {
        fill: #475569;
        font-size: 16px;
        font-family: DejaVu Sans, Liberation Sans, sans-serif;
        font-weight: 700;
        letter-spacing: 0;
      }
    </style>
  </defs>

  <rect x="90" y="78" width="1420" height="332" rx="30"
        fill="#f6f8ff" stroke="#d9e2ff" stroke-width="3"/>
  <text x="150" y="122" class="title">Laptop</text>

  <rect x="220" y="152" width="224" height="112" rx="24"
        fill="#ffffff" stroke="#dbe4ff" stroke-width="2.4"/>
  <rect x="518" y="152" width="224" height="112" rx="24"
        fill="#ffffff" stroke="#e7e5ff" stroke-width="2.4"/>
  <rect x="816" y="152" width="224" height="112" rx="24"
        fill="#ffffff" stroke="#d8eee7" stroke-width="2.4"/>
  <rect x="1120" y="124" width="248" height="212" rx="26"
        fill="#ffffff" stroke="#dbe4ff" stroke-width="2.4"/>

  <text x="332" y="195" text-anchor="middle" class="section">manager</text>
  <text x="332" y="230" text-anchor="middle" class="math">$ \Delta t,\; T_l $</text>

  <text x="630" y="195" text-anchor="middle" class="section">bridge</text>
  <text x="630" y="230" text-anchor="middle" class="word">ROS</text>

  <text x="928" y="195" text-anchor="middle" class="section">solver</text>
  <text x="928" y="230" text-anchor="middle" class="math">$ \pi_{\mathrm{rh}} $</text>

  <image x="1148" y="140" width="192" height="178"
         xlink:href="laptop_photo.png" preserveAspectRatio="xMidYMid meet"/>

  <text x="58" y="206" class="word">START</text>
  <path d="M 110 198 C 146 198, 176 198, 208 204"
        fill="none" stroke="#94a3b8" stroke-width="4.2" stroke-linecap="round"
        marker-end="url(#arrow-blue)"/>

  <path d="M 446 186 L 506 186"
        fill="none" stroke="#7290e7" stroke-width="5.4" stroke-linecap="round"
        marker-end="url(#arrow-blue)"/>
  <path d="M 506 230 L 446 230"
        fill="none" stroke="#58b59a" stroke-width="5.4" stroke-linecap="round"
        marker-end="url(#arrow-green)"/>

  <path d="M 744 186 L 804 186"
        fill="none" stroke="#7290e7" stroke-width="5.4" stroke-linecap="round"
        marker-end="url(#arrow-blue)"/>
  <path d="M 804 230 L 744 230"
        fill="none" stroke="#58b59a" stroke-width="5.4" stroke-linecap="round"
        marker-end="url(#arrow-green)"/>
  <text x="774" y="166" text-anchor="middle" class="tag">TCP</text>

  <rect x="132" y="486" width="376" height="286" rx="28"
        fill="#fff8f3" stroke="#f0ddd0" stroke-width="2.8"/>
  <rect x="612" y="486" width="376" height="286" rx="28"
        fill="#fff8f3" stroke="#f0ddd0" stroke-width="2.8"/>
  <rect x="1092" y="486" width="376" height="286" rx="28"
        fill="#fff8f3" stroke="#f0ddd0" stroke-width="2.8"/>

  <text x="320" y="530" text-anchor="middle" class="section">$ r_1 $</text>
  <text x="800" y="530" text-anchor="middle" class="section">$ r_2 $</text>
  <text x="1280" y="530" text-anchor="middle" class="section">$ r_3 $</text>

  <image x="164" y="598" width="152" height="86"
         xlink:href="robot_photo.png" preserveAspectRatio="xMidYMid meet"
         transform="rotate(-4 240 641)"/>
  <image x="644" y="598" width="152" height="86"
         xlink:href="robot_photo.png" preserveAspectRatio="xMidYMid meet"/>
  <image x="1124" y="598" width="152" height="86"
         xlink:href="robot_photo.png" preserveAspectRatio="xMidYMid meet"
         transform="rotate(4 1200 641)"/>

  <rect x="314" y="560" width="150" height="50" rx="18"
        fill="#e8f1ff" stroke="#d2e3ff" stroke-width="1.8"/>
  <rect x="794" y="560" width="150" height="50" rx="18"
        fill="#e8f1ff" stroke="#d2e3ff" stroke-width="1.8"/>
  <rect x="1274" y="560" width="150" height="50" rx="18"
        fill="#e8f1ff" stroke="#d2e3ff" stroke-width="1.8"/>
  <text x="389" y="592" text-anchor="middle" class="math">$ \hat{\mathbf{x}}_k^1 $</text>
  <text x="869" y="592" text-anchor="middle" class="math">$ \hat{\mathbf{x}}_k^2 $</text>
  <text x="1349" y="592" text-anchor="middle" class="math">$ \hat{\mathbf{x}}_k^3 $</text>

  <rect x="314" y="628" width="150" height="50" rx="18"
        fill="#e5f6ef" stroke="#d0edde" stroke-width="1.8"/>
  <rect x="794" y="628" width="150" height="50" rx="18"
        fill="#e5f6ef" stroke="#d0edde" stroke-width="1.8"/>
  <rect x="1274" y="628" width="150" height="50" rx="18"
        fill="#e5f6ef" stroke="#d0edde" stroke-width="1.8"/>
  <text x="389" y="660" text-anchor="middle" class="math">$ u_k^1 $</text>
  <text x="869" y="660" text-anchor="middle" class="math">$ u_k^2 $</text>
  <text x="1349" y="660" text-anchor="middle" class="math">$ u_k^3 $</text>

  <rect x="198" y="700" width="234" height="48" rx="18"
        fill="#fff1e9" stroke="#f0ddd0" stroke-width="1.8"/>
  <rect x="678" y="700" width="234" height="48" rx="18"
        fill="#fff1e9" stroke="#f0ddd0" stroke-width="1.8"/>
  <rect x="1158" y="700" width="234" height="48" rx="18"
        fill="#fff1e9" stroke="#f0ddd0" stroke-width="1.8"/>
  <text x="286" y="731" text-anchor="middle" class="word">watchdog</text>
  <text x="766" y="731" text-anchor="middle" class="word">watchdog</text>
  <text x="1246" y="731" text-anchor="middle" class="word">watchdog</text>

  <rect x="352" y="711" width="52" height="26" rx="10"
        fill="#ffe2dc" stroke="#ffd0c8" stroke-width="1.4"/>
  <rect x="832" y="711" width="52" height="26" rx="10"
        fill="#ffe2dc" stroke="#ffd0c8" stroke-width="1.4"/>
  <rect x="1312" y="711" width="52" height="26" rx="10"
        fill="#ffe2dc" stroke="#ffd0c8" stroke-width="1.4"/>
  <text x="378" y="730" text-anchor="middle" class="math">$ 0 $</text>
  <text x="858" y="730" text-anchor="middle" class="math">$ 0 $</text>
  <text x="1338" y="730" text-anchor="middle" class="math">$ 0 $</text>

  <path d="M 284 641 C 320 624, 344 614, 364 606"
        fill="none" stroke="#7290e7" stroke-width="4.6" stroke-linecap="round"
        marker-end="url(#arrow-blue)"/>
  <path d="M 370 630 C 328 636, 302 642, 274 652"
        fill="none" stroke="#58b59a" stroke-width="4.6" stroke-linecap="round"
        marker-end="url(#arrow-green)"/>
  <path d="M 315 700 L 360 678"
        fill="none" stroke="#e6a29a" stroke-width="4.2" stroke-linecap="round"
        marker-end="url(#arrow-red)"/>

  <path d="M 764 641 C 800 624, 824 614, 844 606"
        fill="none" stroke="#7290e7" stroke-width="4.6" stroke-linecap="round"
        marker-end="url(#arrow-blue)"/>
  <path d="M 850 630 C 808 636, 782 642, 754 652"
        fill="none" stroke="#58b59a" stroke-width="4.6" stroke-linecap="round"
        marker-end="url(#arrow-green)"/>
  <path d="M 795 700 L 840 678"
        fill="none" stroke="#e6a29a" stroke-width="4.2" stroke-linecap="round"
        marker-end="url(#arrow-red)"/>

  <path d="M 1244 641 C 1280 624, 1304 614, 1324 606"
        fill="none" stroke="#7290e7" stroke-width="4.6" stroke-linecap="round"
        marker-end="url(#arrow-blue)"/>
  <path d="M 1330 630 C 1288 636, 1262 642, 1234 652"
        fill="none" stroke="#58b59a" stroke-width="4.6" stroke-linecap="round"
        marker-end="url(#arrow-green)"/>
  <path d="M 1275 700 L 1320 678"
        fill="none" stroke="#e6a29a" stroke-width="4.2" stroke-linecap="round"
        marker-end="url(#arrow-red)"/>

  <path d="M 389 560 C 420 470, 510 350, 578 264"
        fill="none" stroke="#7290e7" stroke-width="5.2" stroke-linecap="round"
        marker-end="url(#arrow-blue)"/>
  <path d="M 620 264 C 555 352, 474 470, 431 628"
        fill="none" stroke="#58b59a" stroke-width="5.2" stroke-linecap="round"
        marker-end="url(#arrow-green)"/>
  <text x="484" y="388" text-anchor="middle" class="tag">ROS</text>

  <path d="M 869 560 C 848 470, 770 350, 662 264"
        fill="none" stroke="#7290e7" stroke-width="5.2" stroke-linecap="round"
        marker-end="url(#arrow-blue)"/>
  <path d="M 674 264 C 776 350, 846 470, 911 628"
        fill="none" stroke="#58b59a" stroke-width="5.2" stroke-linecap="round"
        marker-end="url(#arrow-green)"/>
  <text x="770" y="392" text-anchor="middle" class="tag">ROS</text>

  <path d="M 1349 560 C 1278 470, 1094 352, 682 264"
        fill="none" stroke="#7290e7" stroke-width="5.2" stroke-linecap="round"
        marker-end="url(#arrow-blue)"/>
  <path d="M 686 264 C 1100 352, 1258 470, 1391 628"
        fill="none" stroke="#58b59a" stroke-width="5.2" stroke-linecap="round"
        marker-end="url(#arrow-green)"/>
  <text x="1096" y="378" text-anchor="middle" class="tag">ROS</text>
</svg>
